G04 Layer: BottomSilkscreenLayer*
G04 EasyEDA v6.5.57, 2026-07-02 21:33:08*
G04 0aafc2776b684c7eb7368d4b96c4e56a,98766d9b14b04554b4776da6f41353e4,10*
G04 Gerber Generator version 0.2*
G04 Scale: 100 percent, Rotated: No, Reflected: No *
G04 Dimensions in millimeters *
G04 leading zeros omitted , absolute positions ,4 integer and 5 decimal *
%FSLAX45Y45*%
%MOMM*%

%ADD10C,0.0189*%

%LPD*%
G36*
X5150612Y5671210D02*
G01*
X5125059Y5648706D01*
X5117338Y5504789D01*
X5104333Y5347106D01*
X5093970Y5317744D01*
X5093868Y5256022D01*
X5082387Y5157876D01*
X5071821Y5087823D01*
X5060391Y4980635D01*
X5043220Y4891582D01*
X5032095Y4804003D01*
X5015585Y4737455D01*
X4998923Y4639310D01*
X4988509Y4600803D01*
X4971237Y4527194D01*
X4958689Y4488688D01*
X4938674Y4418584D01*
X4920437Y4362500D01*
X4896967Y4295952D01*
X4870500Y4234992D01*
X4870551Y4225899D01*
X4836363Y4155795D01*
X4796586Y4082237D01*
X4774285Y4040174D01*
X4717745Y3956100D01*
X4629505Y3847439D01*
X4597146Y3815943D01*
X4579315Y3796182D01*
X4521352Y3745636D01*
X4471060Y3703777D01*
X4303471Y3596284D01*
X4221226Y3556660D01*
X4133900Y3516782D01*
X4102354Y3505555D01*
X4052062Y3485286D01*
X3877868Y3429558D01*
X3850944Y3424478D01*
X3750411Y3394659D01*
X3695649Y3386328D01*
X3666591Y3376929D01*
X3560470Y3355594D01*
X3448710Y3334105D01*
X3435248Y3334156D01*
X3337001Y3317290D01*
X3230829Y3302812D01*
X3141472Y3291382D01*
X3029712Y3278835D01*
X2968294Y3271164D01*
X2783890Y3253486D01*
X2633065Y3242868D01*
X2566009Y3236315D01*
X2420772Y3228848D01*
X2353767Y3221888D01*
X2175967Y3211525D01*
X2098903Y3211525D01*
X2052066Y3205022D01*
X1878228Y3196844D01*
X1694535Y3191002D01*
X1437538Y3180080D01*
X1180033Y3174441D01*
X1144270Y3158490D01*
X1144270Y3152597D01*
X1247597Y3148787D01*
X1549298Y3140659D01*
X1683359Y3134664D01*
X1878888Y3127959D01*
X2052066Y3119932D01*
X2098903Y3113379D01*
X2175967Y3113379D01*
X2353767Y3103016D01*
X2420772Y3096056D01*
X2566009Y3088589D01*
X2633065Y3082036D01*
X2783890Y3071418D01*
X2968294Y3053740D01*
X3029712Y3046171D01*
X3141472Y3033268D01*
X3230829Y3022092D01*
X3337001Y3007360D01*
X3434130Y2990748D01*
X3448710Y2990799D01*
X3560470Y2969310D01*
X3666591Y2947974D01*
X3695649Y2938576D01*
X3750411Y2930245D01*
X3852418Y2899664D01*
X3864305Y2899664D01*
X4052062Y2839618D01*
X4102354Y2819349D01*
X4133850Y2808122D01*
X4214368Y2771800D01*
X4281119Y2740253D01*
X4452518Y2635148D01*
X4515764Y2583535D01*
X4579264Y2528773D01*
X4597146Y2509012D01*
X4629505Y2477465D01*
X4718354Y2368194D01*
X4726432Y2351328D01*
X4773980Y2288235D01*
X4787290Y2253894D01*
X4802276Y2235708D01*
X4836312Y2169109D01*
X4870551Y2099056D01*
X4870500Y2089912D01*
X4896967Y2028952D01*
X4920437Y1962404D01*
X4938268Y1906320D01*
X4958842Y1836267D01*
X4970881Y1797710D01*
X4988763Y1724101D01*
X4998364Y1685594D01*
X5010150Y1608480D01*
X5020767Y1569974D01*
X5032806Y1517396D01*
X5043220Y1433322D01*
X5060797Y1342186D01*
X5070551Y1244092D01*
X5088331Y1124966D01*
X5099812Y991819D01*
X5109921Y900734D01*
X5121808Y764082D01*
X5121910Y693115D01*
X5128869Y671220D01*
X5159603Y671220D01*
X5166563Y693115D01*
X5166664Y764082D01*
X5178196Y897229D01*
X5189270Y995324D01*
X5199176Y1114450D01*
X5212080Y1223060D01*
X5222443Y1252474D01*
X5222443Y1300784D01*
X5239004Y1412290D01*
X5250129Y1454353D01*
X5262016Y1545437D01*
X5272481Y1587500D01*
X5289397Y1682089D01*
X5299913Y1724101D01*
X5317236Y1797710D01*
X5329428Y1836267D01*
X5350205Y1906320D01*
X5368036Y1962404D01*
X5391505Y2028952D01*
X5417972Y2089912D01*
X5417972Y2099056D01*
X5452160Y2169109D01*
X5484571Y2232202D01*
X5506720Y2267204D01*
X5524144Y2300528D01*
X5542788Y2333802D01*
X5563209Y2350516D01*
X5563209Y2358948D01*
X5658815Y2477465D01*
X5691327Y2509012D01*
X5709208Y2528773D01*
X5772759Y2583535D01*
X5835954Y2635148D01*
X6007354Y2740253D01*
X6074105Y2771800D01*
X6154623Y2808122D01*
X6186119Y2819349D01*
X6236411Y2839618D01*
X6410655Y2895346D01*
X6437528Y2900426D01*
X6538112Y2930245D01*
X6592874Y2938576D01*
X6621881Y2947974D01*
X6728053Y2969310D01*
X6839762Y2990799D01*
X6854342Y2990748D01*
X6951522Y3007360D01*
X7057644Y3022092D01*
X7147052Y3033268D01*
X7258761Y3046171D01*
X7320229Y3053740D01*
X7498994Y3070961D01*
X7621879Y3078378D01*
X7683347Y3085033D01*
X7767167Y3092551D01*
X7901228Y3099104D01*
X8043164Y3109874D01*
X8214055Y3117037D01*
X8325815Y3123641D01*
X8482228Y3130854D01*
X8580628Y3130905D01*
X8627465Y3137458D01*
X8878874Y3145586D01*
X9108389Y3150412D01*
X9144254Y3166414D01*
X9144254Y3172307D01*
X9040876Y3176168D01*
X8739225Y3184245D01*
X8605113Y3190290D01*
X8409584Y3196945D01*
X8236407Y3205022D01*
X8189569Y3211525D01*
X8112506Y3211525D01*
X7934756Y3221888D01*
X7867700Y3228848D01*
X7722463Y3236315D01*
X7655407Y3242868D01*
X7504582Y3253486D01*
X7320229Y3271164D01*
X7258761Y3278733D01*
X7147052Y3291636D01*
X7057644Y3302812D01*
X6951522Y3317544D01*
X6854342Y3334156D01*
X6839762Y3334105D01*
X6728053Y3355594D01*
X6621881Y3376929D01*
X6592874Y3386328D01*
X6538112Y3394659D01*
X6437528Y3424478D01*
X6410655Y3429558D01*
X6236411Y3485286D01*
X6186119Y3505555D01*
X6154572Y3516782D01*
X6067298Y3556660D01*
X5985002Y3596284D01*
X5817412Y3703777D01*
X5767120Y3745636D01*
X5709158Y3796182D01*
X5691327Y3815943D01*
X5658967Y3847439D01*
X5570118Y3956710D01*
X5562041Y3973576D01*
X5514492Y4036669D01*
X5501182Y4071010D01*
X5486196Y4089247D01*
X5452160Y4155795D01*
X5417972Y4225899D01*
X5417972Y4234992D01*
X5391505Y4295952D01*
X5368036Y4362500D01*
X5350205Y4418584D01*
X5329631Y4488688D01*
X5317236Y4527194D01*
X5299913Y4600803D01*
X5289397Y4642815D01*
X5272481Y4737455D01*
X5262016Y4779467D01*
X5250129Y4870602D01*
X5239004Y4912614D01*
X5222443Y5024120D01*
X5222443Y5072430D01*
X5212080Y5101844D01*
X5199227Y5210454D01*
X5188610Y5333085D01*
X5179009Y5417159D01*
X5166055Y5606389D01*
X5159959Y5671210D01*
G37*
M02*
